#N canvas -4 -4 1920 1134 12;
#N canvas 0 0 450 300 (subpatch) 0;
#X array sample-table 44104 float 0;
#X coords 0 1.02 44103 -1.02 200 130 1;
#X restore 585 20 graph;
#X obj 582 174 loadbang;
#X obj 582 223 soundfiler;
#X obj 31 84 tabplay~ sample-table;
#X obj 31 51 bng 15 250 50 0 empty empty empty 17 7 0 10 -262144 -1
-1;
#X obj 38 775 dac~;
#X obj 30 125 freeverb~;
#X msg 148 127 wet \$1;
#X obj 151 108 hsl 50 15 0 1 0 0 empty empty empty -2 -8 0 10 -262144
-1 -1 0 1;
#X obj 151 159 hsl 50 15 0 1 0 0 empty empty empty -2 -8 0 10 -262144
-1 -1 0 1;
#X msg 148 178 dry \$1;
#X obj 149 202 hsl 50 15 0 0.8 0 0 empty empty empty -2 -8 0 10 -262144
-1 -1 0 1;
#X msg 146 221 roomsize \$1;
#X obj 158 381 vd~ dLeft;
#X obj 158 353 sig~;
#X obj -86 380 vd~ dLeft;
#X obj -86 352 sig~;
#X obj 162 503 vd~ dLeft;
#X obj 162 475 sig~;
#X obj -82 502 vd~ dLeft;
#X obj -82 474 sig~;
#X obj 162 636 vd~ dLeft;
#X obj 162 608 sig~;
#X obj -80 635 vd~ dLeft;
#X obj -80 607 sig~;
#X obj -82 416 r ms;
#X obj -82 447 / 2;
#X obj 161 416 r ms;
#X obj 162 540 r ms;
#X obj -80 542 r ms;
#X obj 160 323 r ms;
#X obj -85 322 r ms;
#X obj 166 772 vd~ dLeft;
#X obj 166 744 sig~;
#X obj -76 771 vd~ dLeft;
#X obj -76 743 sig~;
#X obj 166 676 r ms;
#X obj -76 678 r ms;
#X obj 166 908 vd~ dLeft;
#X obj 166 880 sig~;
#X obj -76 907 vd~ dLeft;
#X obj -76 879 sig~;
#X obj 166 812 r ms;
#X obj -76 814 r ms;
#X obj -76 709 * 2;
#X obj -80 573 / 4;
#X obj -76 845 * 4;
#X obj 161 447 / 3;
#X obj 162 571 / 5;
#X obj 166 707 * 3;
#X obj 166 843 * 5;
#X obj 268 637 vd~ dLeft;
#X obj 268 609 sig~;
#X obj -83 143 vd~ dLeft;
#X obj -83 115 sig~;
#X obj 268 541 r ms;
#X obj -83 50 r ms;
#X obj 268 773 vd~ dLeft;
#X obj 268 745 sig~;
#X obj -83 279 vd~ dLeft;
#X obj -83 251 sig~;
#X obj 268 677 r ms;
#X obj -83 186 r ms;
#X obj -83 81 / 6;
#X obj -83 217 / 8;
#X obj 268 708 / 9;
#X obj 268 572 / 7;
#X obj 583 267 bng 15 250 50 0 empty empty empty 0 -6 0 10 -262144
-1 -1;
#N canvas 0 0 1040 834 superTT 0;
#X obj 307 139 t b b;
#X obj 307 183 timer;
#N canvas 0 0 450 300 (subpatch) 0;
#X array \$0-tt 6 float 2;
#X coords 0 1000 6 -1 40 50 1;
#X restore 501 202 graph;
#X obj 530 320 f;
#X msg 572 289 0;
#X obj 557 378 + 1;
#X obj 530 350 t f f;
#X obj 449 376 tabwrite \$0-tt;
#X obj 572 257 loadbang;
#X obj 308 364 until;
#X msg 355 397 0;
#X obj 308 430 f;
#X obj 308 512 tabread \$0-tt;
#X obj 308 541 + 0;
#X obj 308 462 t f f;
#X obj 335 489 + 1;
#X obj 308 567 t f f;
#X obj 220 472 f;
#X obj 308 300 t b b b;
#X msg 388 396 0;
#X obj 307 223 t b b f b;
#X obj 220 612 expr 60000 / $f1;
#X obj 307 92 inlet bang;
#X obj 96 673 outlet ms;
#X obj 220 671 outlet bpm;
#X obj 557 406 sel 6;
#X msg 308 339 6;
#X obj 220 498 / 6;
#X connect 0 0 1 0;
#X connect 0 1 1 1;
#X connect 1 0 20 0;
#X connect 3 0 6 0;
#X connect 4 0 3 1;
#X connect 5 0 25 0;
#X connect 6 0 7 1;
#X connect 6 1 5 0;
#X connect 8 0 4 0;
#X connect 9 0 11 0;
#X connect 10 0 11 1;
#X connect 11 0 14 0;
#X connect 12 0 13 0;
#X connect 13 0 16 0;
#X connect 14 0 12 0;
#X connect 14 1 15 0;
#X connect 15 0 11 1;
#X connect 16 0 17 1;
#X connect 16 1 13 1;
#X connect 17 0 27 0;
#X connect 18 0 26 0;
#X connect 18 1 10 0;
#X connect 18 2 19 0;
#X connect 19 0 13 1;
#X connect 20 0 17 0;
#X connect 20 1 18 0;
#X connect 20 2 7 0;
#X connect 20 3 3 0;
#X connect 21 0 24 0;
#X connect 22 0 0 0;
#X connect 25 0 4 0;
#X connect 25 1 3 1;
#X connect 26 0 9 0;
#X connect 27 0 21 0;
#X connect 27 0 23 0;
#X restore 583 306 pd superTT;
#X floatatom 583 343 8 0 0 3 ms - -;
#X floatatom 650 343 10 0 0 3 bpm - -;
#X obj 583 385 s ms;
#X text 223 12 POT 1;
#X text 224 86 POT 2;
#X text 223 146 POT 3;
#X obj -19 586 lop~;
#X obj 106 587 lop~;
#X obj 288 243 hsl 128 15 200 4000 0 0 empty empty empty -2 -8 0 10
-262144 -1 -1 0 1;
#X obj -18 531 *~ 0.05;
#X obj 107 529 *~ 0.05;
#X obj 31 451 *~ 0.05;
#X obj 89 451 *~ 0.05;
#X obj 152 268 delwrite~ dRight 4000;
#X obj 154 292 delwrite~ dLeft 4000;
#X obj 21 686 freeverb~;
#X msg 420 614 wet \$1;
#X obj 423 595 hsl 50 15 1 0 0 0 empty empty empty -2 -8 0 10 -262144
-1 -1 0 1;
#X obj 423 646 hsl 50 15 0 1 0 0 empty empty empty -2 -8 0 10 -262144
-1 -1 0 1;
#X msg 420 665 dry \$1;
#X obj 423 527 hsl 128 15 0 1 0 0 empty empty empty -2 -8 0 10 -262144
-1 -1 0 1;
#X text 431 243 TEXTURE POT 4;
#X obj 287 370 hsl 128 15 0 0.3 0 0 empty empty empty -2 -8 0 10 -262144
-1 -1 0 1;
#X text 433 371 FEEDBACK POT 5;
#X obj 221 431 *~;
#X obj 266 430 *~;
#X msg 39 -41 1;
#X msg 100 -43 0;
#X obj 129 -21 r ms;
#X text 567 527 BLEND POT 6;
#X obj 31 11 metro 2000;
#X msg 582 198 read voice2.wav sample-table;
#N canvas 105 328 986 609 fft 0;
#X obj 18 500 *~;
#X obj 291 455 *~;
#X obj 258 454 *~;
#X obj 356 456 *~;
#X obj 324 455 *~;
#X obj 324 477 +~;
#X obj 258 479 -~;
#X obj 560 383 *~;
#X obj 54 124 *~;
#X obj 22 124 *~;
#X obj 22 145 +~;
#X obj 325 82 *~;
#X obj 293 82 *~;
#X obj 608 312 *~;
#X obj 576 312 *~;
#X obj 93 63 *~;
#X obj 18 522 outlet~;
#X obj 18 475 *~;
#X obj 126 63 inlet~;
#X obj 93 84 rfft~;
#X obj 18 451 rifft~;
#X obj 576 334 rsqrt~;
#X obj 293 103 +~;
#X obj 484 383 *~;
#X obj 56 499 sig~ 0.0002;
#N canvas 167 161 699 396 decision 0;
#X obj 49 101 inlet~;
#X obj 50 341 outlet~;
#X obj 50 183 -~;
#X obj 50 226 clip~ 0 1;
#X obj 50 204 *~ 1e+020;
#X obj 196 98 inlet~;
#X text 137 213 stronger than;
#X text 139 228 old one;
#X obj 274 202 -~;
#X obj 288 177 lrshift~ 1;
#X obj 274 250 clip~ 0 1;
#X obj 274 228 *~ 1e+020;
#X obj 450 202 -~;
#X obj 450 250 clip~ 0 1;
#X obj 450 228 *~ 1e+020;
#X obj 464 177 lrshift~ -1;
#X obj 50 283 *~;
#X obj 50 312 *~;
#X text 135 199 1 if new signal;
#X text 55 73 new;
#X text 203 70 old;
#X text 51 12 Choose whether to replace the "lod" signal with the "new"
one. The "new" one must be stronger than the old one and also must
be stronger than its two neighboring channels;
#X text 267 283 1 if we're louder than neighbor;
#X connect 0 0 2 0;
#X connect 0 0 9 0;
#X connect 0 0 8 0;
#X connect 0 0 12 0;
#X connect 0 0 15 0;
#X connect 2 0 4 0;
#X connect 3 0 16 0;
#X connect 4 0 3 0;
#X connect 5 0 2 1;
#X connect 8 0 11 0;
#X connect 9 0 8 1;
#X connect 10 0 16 1;
#X connect 11 0 10 0;
#X connect 12 0 14 0;
#X connect 13 0 17 1;
#X connect 14 0 13 0;
#X connect 15 0 12 1;
#X connect 16 0 17 0;
#X connect 17 0 1 0;
#X restore 23 172 pd decision;
#X obj 576 356 *~;
#N canvas 276 481 755 363 divide-by-prev 0;
#X obj 283 99 inlet~;
#X obj 385 101 inlet~;
#X obj 284 249 outlet~;
#X obj 386 249 outlet~;
#X obj 107 251 outlet~;
#X obj 208 253 outlet~;
#X obj 250 180 *~;
#X obj 217 180 *~;
#X obj 182 181 *~;
#X obj 149 181 *~;
#X obj 149 203 +~;
#X obj 217 202 -~;
#X obj 92 49 tabreceive~ \$0-last-real;
#X obj 190 72 tabreceive~ \$0-last-imag;
#X connect 0 0 2 0;
#X connect 0 0 9 0;
#X connect 0 0 6 0;
#X connect 1 0 3 0;
#X connect 1 0 8 0;
#X connect 1 0 7 0;
#X connect 6 0 11 1;
#X connect 7 0 11 0;
#X connect 8 0 10 1;
#X connect 9 0 10 0;
#X connect 10 0 4 0;
#X connect 11 0 5 0;
#X connect 12 0 9 1;
#X connect 12 0 7 1;
#X connect 13 0 8 1;
#X connect 13 0 6 1;
#X restore 603 192 pd divide-by-prev;
#N canvas 650 183 602 327 switch 0;
#X obj 19 163 inlet~;
#X obj 107 99 inlet~;
#X obj 169 100 inlet~;
#X obj 273 97 inlet~;
#X obj 333 97 inlet~;
#X obj 367 185 -~;
#X obj 338 231 +~;
#X obj 372 229 *~;
#X obj 250 182 -~;
#X obj 220 228 +~;
#X obj 254 228 *~;
#X obj 219 278 outlet~;
#X obj 338 274 outlet~;
#X text 46 28 switch between two pairs of inputs. If first inlet is
one \, take the left-hand pair \, otherwise the right-hand one.;
#X text 15 140 switch;
#X text 92 76 pass this if one;
#X text 269 77 pass this if zero;
#X connect 0 0 10 1;
#X connect 0 0 7 1;
#X connect 1 0 8 0;
#X connect 2 0 5 0;
#X connect 3 0 9 0;
#X connect 3 0 8 1;
#X connect 4 0 6 0;
#X connect 4 0 5 1;
#X connect 5 0 7 0;
#X connect 6 0 12 0;
#X connect 7 0 6 1;
#X connect 8 0 10 0;
#X connect 9 0 11 0;
#X connect 10 0 9 1;
#X restore 327 275 pd switch;
#N canvas 650 183 602 327 switch 0;
#X obj 19 163 inlet~;
#X obj 107 99 inlet~;
#X obj 169 100 inlet~;
#X obj 273 97 inlet~;
#X obj 333 97 inlet~;
#X obj 367 185 -~;
#X obj 338 231 +~;
#X obj 372 229 *~;
#X obj 250 182 -~;
#X obj 220 228 +~;
#X obj 254 228 *~;
#X obj 219 278 outlet~;
#X obj 338 274 outlet~;
#X text 46 28 switch between two pairs of inputs. If first inlet is
one \, take the left-hand pair \, otherwise the right-hand one.;
#X text 15 140 switch;
#X text 92 76 pass this if one;
#X text 269 77 pass this if zero;
#X connect 0 0 10 1;
#X connect 0 0 7 1;
#X connect 1 0 8 0;
#X connect 2 0 5 0;
#X connect 3 0 9 0;
#X connect 3 0 8 1;
#X connect 4 0 6 0;
#X connect 4 0 5 1;
#X connect 5 0 7 0;
#X connect 6 0 12 0;
#X connect 7 0 6 1;
#X connect 8 0 10 0;
#X connect 9 0 11 0;
#X connect 10 0 9 1;
#X restore 484 266 pd switch;
#X obj 655 270 r revtime;
#X obj 54 476 tabreceive~ \$0-hann;
#X obj 94 35 tabreceive~ \$0-hann;
#X obj 505 112 tabreceive~ \$0-inc-real;
#X obj 587 134 tabreceive~ \$0-inc-imag;
#X obj 752 220 tabsend~ \$0-last-imag;
#X obj 702 243 tabsend~ \$0-last-real;
#X obj 559 426 tabsend~ \$0-inc-imag;
#X obj 484 449 tabsend~ \$0-inc-real;
#X msg 665 293 set \$1;
#X obj 665 317 s revtime-set;
#X obj 800 483 loadbang;
#X msg 800 509 \; pd dsp 1 \; window-size 4096 \; revtime 20;
#X obj 800 411 r window-size;
#X msg 800 433 set \$1 4;
#X obj 800 455 block~;
#X obj 655 341 expr 1 - 0.2/max(0.2 \, $f1);
#X text 20 206 choose whether to;
#X text 18 224 punch in new (amplitude \,;
#X text 16 243 increment) pair;
#X obj 367 26 tabreceive~ \$0-amp-real;
#X obj 443 50 tabreceive~ \$0-amp-imag;
#X obj 325 537 tabsend~ \$0-amp-imag;
#X obj 258 560 tabsend~ \$0-amp-real;
#X text 361 6 previous output amplitude \, encoding both magnitude
and phase;
#X text 453 87 previous phase increment (unit-magnitude complex number)
;
#X obj 506 134 +~ 1e-015;
#X obj 366 50 +~ 1e-015;
#X text 363 482 propagate amplitudes by multiplying in the;
#X text 361 499 increments \, which advance the phase and drop;
#X text 365 514 magnitude according to revtime.;
#X text 608 370 normalize increments between 0 and;
#X text 606 388 1 according to revtime.;
#X text 78 453 IFFT and output;
#X connect 0 0 16 0;
#X connect 1 0 6 1;
#X connect 2 0 6 0;
#X connect 3 0 5 1;
#X connect 4 0 5 0;
#X connect 5 0 52 0;
#X connect 6 0 53 0;
#X connect 7 0 1 0;
#X connect 7 0 3 0;
#X connect 7 0 37 0;
#X connect 8 0 10 1;
#X connect 9 0 10 0;
#X connect 10 0 25 0;
#X connect 11 0 22 1;
#X connect 12 0 22 0;
#X connect 13 0 21 0;
#X connect 14 0 21 0;
#X connect 15 0 19 0;
#X connect 17 0 0 0;
#X connect 18 0 15 1;
#X connect 19 0 9 0;
#X connect 19 0 9 1;
#X connect 19 0 27 0;
#X connect 19 0 28 1;
#X connect 19 1 8 0;
#X connect 19 1 8 1;
#X connect 19 1 27 1;
#X connect 19 1 28 2;
#X connect 20 0 17 0;
#X connect 21 0 26 0;
#X connect 22 0 25 1;
#X connect 23 0 2 0;
#X connect 23 0 4 0;
#X connect 23 0 38 0;
#X connect 24 0 0 1;
#X connect 25 0 28 0;
#X connect 25 0 29 0;
#X connect 26 0 23 1;
#X connect 26 0 7 1;
#X connect 27 0 29 1;
#X connect 27 1 29 2;
#X connect 27 2 36 0;
#X connect 27 3 35 0;
#X connect 28 0 20 0;
#X connect 28 0 3 1;
#X connect 28 0 2 1;
#X connect 28 1 20 1;
#X connect 28 1 1 1;
#X connect 28 1 4 1;
#X connect 29 0 14 0;
#X connect 29 0 14 1;
#X connect 29 0 23 0;
#X connect 29 1 13 0;
#X connect 29 1 13 1;
#X connect 29 1 7 0;
#X connect 30 0 39 0;
#X connect 30 0 46 0;
#X connect 31 0 17 1;
#X connect 32 0 15 0;
#X connect 33 0 56 0;
#X connect 34 0 29 4;
#X connect 39 0 40 0;
#X connect 41 0 42 0;
#X connect 43 0 44 0;
#X connect 44 0 45 0;
#X connect 46 0 26 1;
#X connect 50 0 57 0;
#X connect 51 0 11 0;
#X connect 51 0 11 1;
#X connect 51 0 28 4;
#X connect 56 0 29 3;
#X connect 57 0 12 0;
#X connect 57 0 12 1;
#X connect 57 0 28 3;
#X restore 215 463 pd fft;
#X text 790 311 reverb time;
#X text 749 286 short tone;
#X obj 749 332 s revtime;
#N canvas 0 110 565 454 hann-window 0;
#N canvas 0 0 450 300 (subpatch) 0;
#X array \$0-hann 4096 float 0;
#X coords 0 1 4095 0 300 100 1;
#X restore 82 311 graph;
#X obj 378 165 osc~;
#X obj 378 190 *~ -0.5;
#X obj 378 214 +~ 0.5;
#X obj 331 247 tabwrite~ \$0-hann;
#X obj 37 88 r window-size;
#X obj 38 173 /;
#X obj 127 142 samplerate~;
#X obj 38 251 s window-sec;
#X obj 177 204 swap;
#X obj 177 228 /;
#X obj 177 252 s window-hz;
#X obj 49 201 * 1000;
#X obj 49 228 s window-msec;
#X obj 38 115 t f b f;
#X msg 173 92 resize \$1;
#X obj 173 116 s \$0-hann;
#X obj 330 105 r window-hz;
#X msg 382 130 0;
#X obj 330 131 t f b;
#X text 15 8 calculate Hann window table (variable window size) and
constants window-hz (fundamental frequency of analysis) \, window-sec
and window-msec (analysis window size in seconds and msec).;
#X connect 1 0 2 0;
#X connect 2 0 3 0;
#X connect 3 0 4 0;
#X connect 5 0 14 0;
#X connect 6 0 8 0;
#X connect 6 0 12 0;
#X connect 7 0 6 1;
#X connect 7 0 9 1;
#X connect 9 0 10 0;
#X connect 9 1 10 1;
#X connect 10 0 11 0;
#X connect 12 0 13 0;
#X connect 14 0 6 0;
#X connect 14 0 9 0;
#X connect 14 1 7 0;
#X connect 14 2 15 0;
#X connect 15 0 16 0;
#X connect 17 0 19 0;
#X connect 18 0 1 1;
#X connect 19 0 1 0;
#X connect 19 1 4 0;
#X connect 19 1 18 0;
#X restore 751 356 pd hann-window;
#N canvas 52 71 774 520 tables 0;
#N canvas 0 0 450 300 (subpatch) 0;
#X array \$0-last-real 2048 float 0;
#X coords 0 500 2048 -500 200 150 1;
#X restore 103 15 graph;
#N canvas 0 0 450 300 (subpatch) 0;
#X array \$0-last-imag 2048 float 0;
#X coords 0 500 2048 500 200 150 1;
#X restore 497 6 graph;
#N canvas 0 0 450 300 (subpatch) 0;
#X array \$0-amp-real 2048 float 0;
#X coords 0 500 2048 -500 200 150 1;
#X restore 105 185 graph;
#N canvas 0 0 450 300 (subpatch) 0;
#X array \$0-amp-imag 2048 float 0;
#X coords 0 500 2048 -500 200 150 1;
#X restore 501 178 graph;
#N canvas 0 0 450 300 (subpatch) 0;
#X array \$0-inc-real 2048 float 0;
#X coords 0 1 2048 -1 200 150 1;
#X restore 105 357 graph;
#N canvas 0 0 450 300 (subpatch) 0;
#X array \$0-inc-imag 2048 float 0;
#X coords 0 1 2048 -1 200 150 1;
#X restore 503 342 graph;
#X restore 751 377 pd tables;
#N canvas 105 328 986 609 fft 0;
#X obj 18 500 *~;
#X obj 291 455 *~;
#X obj 258 454 *~;
#X obj 356 456 *~;
#X obj 324 455 *~;
#X obj 324 477 +~;
#X obj 258 479 -~;
#X obj 560 383 *~;
#X obj 54 124 *~;
#X obj 22 124 *~;
#X obj 22 145 +~;
#X obj 325 82 *~;
#X obj 293 82 *~;
#X obj 608 312 *~;
#X obj 576 312 *~;
#X obj 93 63 *~;
#X obj 18 522 outlet~;
#X obj 18 475 *~;
#X obj 126 63 inlet~;
#X obj 93 84 rfft~;
#X obj 18 451 rifft~;
#X obj 576 334 rsqrt~;
#X obj 293 103 +~;
#X obj 484 383 *~;
#X obj 56 499 sig~ 0.0002;
#N canvas 167 161 699 396 decision 0;
#X obj 49 101 inlet~;
#X obj 50 341 outlet~;
#X obj 50 183 -~;
#X obj 50 226 clip~ 0 1;
#X obj 50 204 *~ 1e+020;
#X obj 196 98 inlet~;
#X text 137 213 stronger than;
#X text 139 228 old one;
#X obj 274 202 -~;
#X obj 288 177 lrshift~ 1;
#X obj 274 250 clip~ 0 1;
#X obj 274 228 *~ 1e+020;
#X obj 450 202 -~;
#X obj 450 250 clip~ 0 1;
#X obj 450 228 *~ 1e+020;
#X obj 464 177 lrshift~ -1;
#X obj 50 283 *~;
#X obj 50 312 *~;
#X text 135 199 1 if new signal;
#X text 55 73 new;
#X text 203 70 old;
#X text 51 12 Choose whether to replace the "lod" signal with the "new"
one. The "new" one must be stronger than the old one and also must
be stronger than its two neighboring channels;
#X text 267 283 1 if we're louder than neighbor;
#X connect 0 0 2 0;
#X connect 0 0 9 0;
#X connect 0 0 8 0;
#X connect 0 0 12 0;
#X connect 0 0 15 0;
#X connect 2 0 4 0;
#X connect 3 0 16 0;
#X connect 4 0 3 0;
#X connect 5 0 2 1;
#X connect 8 0 11 0;
#X connect 9 0 8 1;
#X connect 10 0 16 1;
#X connect 11 0 10 0;
#X connect 12 0 14 0;
#X connect 13 0 17 1;
#X connect 14 0 13 0;
#X connect 15 0 12 1;
#X connect 16 0 17 0;
#X connect 17 0 1 0;
#X restore 23 172 pd decision;
#X obj 576 356 *~;
#N canvas 276 481 755 363 divide-by-prev 0;
#X obj 283 99 inlet~;
#X obj 385 101 inlet~;
#X obj 284 249 outlet~;
#X obj 386 249 outlet~;
#X obj 107 251 outlet~;
#X obj 208 253 outlet~;
#X obj 250 180 *~;
#X obj 217 180 *~;
#X obj 182 181 *~;
#X obj 149 181 *~;
#X obj 149 203 +~;
#X obj 217 202 -~;
#X obj 92 49 tabreceive~ \$0-last-real;
#X obj 190 72 tabreceive~ \$0-last-imag;
#X connect 0 0 2 0;
#X connect 0 0 9 0;
#X connect 0 0 6 0;
#X connect 1 0 3 0;
#X connect 1 0 8 0;
#X connect 1 0 7 0;
#X connect 6 0 11 1;
#X connect 7 0 11 0;
#X connect 8 0 10 1;
#X connect 9 0 10 0;
#X connect 10 0 4 0;
#X connect 11 0 5 0;
#X connect 12 0 9 1;
#X connect 12 0 7 1;
#X connect 13 0 8 1;
#X connect 13 0 6 1;
#X restore 603 192 pd divide-by-prev;
#N canvas 650 183 602 327 switch 0;
#X obj 19 163 inlet~;
#X obj 107 99 inlet~;
#X obj 169 100 inlet~;
#X obj 273 97 inlet~;
#X obj 333 97 inlet~;
#X obj 367 185 -~;
#X obj 338 231 +~;
#X obj 372 229 *~;
#X obj 250 182 -~;
#X obj 220 228 +~;
#X obj 254 228 *~;
#X obj 219 278 outlet~;
#X obj 338 274 outlet~;
#X text 46 28 switch between two pairs of inputs. If first inlet is
one \, take the left-hand pair \, otherwise the right-hand one.;
#X text 15 140 switch;
#X text 92 76 pass this if one;
#X text 269 77 pass this if zero;
#X connect 0 0 10 1;
#X connect 0 0 7 1;
#X connect 1 0 8 0;
#X connect 2 0 5 0;
#X connect 3 0 9 0;
#X connect 3 0 8 1;
#X connect 4 0 6 0;
#X connect 4 0 5 1;
#X connect 5 0 7 0;
#X connect 6 0 12 0;
#X connect 7 0 6 1;
#X connect 8 0 10 0;
#X connect 9 0 11 0;
#X connect 10 0 9 1;
#X restore 327 275 pd switch;
#N canvas 650 183 602 327 switch 0;
#X obj 19 163 inlet~;
#X obj 107 99 inlet~;
#X obj 169 100 inlet~;
#X obj 273 97 inlet~;
#X obj 333 97 inlet~;
#X obj 367 185 -~;
#X obj 338 231 +~;
#X obj 372 229 *~;
#X obj 250 182 -~;
#X obj 220 228 +~;
#X obj 254 228 *~;
#X obj 219 278 outlet~;
#X obj 338 274 outlet~;
#X text 46 28 switch between two pairs of inputs. If first inlet is
one \, take the left-hand pair \, otherwise the right-hand one.;
#X text 15 140 switch;
#X text 92 76 pass this if one;
#X text 269 77 pass this if zero;
#X connect 0 0 10 1;
#X connect 0 0 7 1;
#X connect 1 0 8 0;
#X connect 2 0 5 0;
#X connect 3 0 9 0;
#X connect 3 0 8 1;
#X connect 4 0 6 0;
#X connect 4 0 5 1;
#X connect 5 0 7 0;
#X connect 6 0 12 0;
#X connect 7 0 6 1;
#X connect 8 0 10 0;
#X connect 9 0 11 0;
#X connect 10 0 9 1;
#X restore 484 266 pd switch;
#X obj 655 270 r revtime;
#X obj 54 476 tabreceive~ \$0-hann;
#X obj 94 35 tabreceive~ \$0-hann;
#X obj 505 112 tabreceive~ \$0-inc-real;
#X obj 587 134 tabreceive~ \$0-inc-imag;
#X obj 752 220 tabsend~ \$0-last-imag;
#X obj 702 243 tabsend~ \$0-last-real;
#X obj 559 426 tabsend~ \$0-inc-imag;
#X obj 484 449 tabsend~ \$0-inc-real;
#X msg 665 293 set \$1;
#X obj 665 317 s revtime-set;
#X obj 800 483 loadbang;
#X msg 800 509 \; pd dsp 1 \; window-size 4096 \; revtime 20;
#X obj 800 411 r window-size;
#X msg 800 433 set \$1 4;
#X obj 800 455 block~;
#X obj 655 341 expr 1 - 0.2/max(0.2 \, $f1);
#X text 20 206 choose whether to;
#X text 18 224 punch in new (amplitude \,;
#X text 16 243 increment) pair;
#X obj 367 26 tabreceive~ \$0-amp-real;
#X obj 443 50 tabreceive~ \$0-amp-imag;
#X obj 325 537 tabsend~ \$0-amp-imag;
#X obj 258 560 tabsend~ \$0-amp-real;
#X text 361 6 previous output amplitude \, encoding both magnitude
and phase;
#X text 453 87 previous phase increment (unit-magnitude complex number)
;
#X obj 506 134 +~ 1e-015;
#X obj 366 50 +~ 1e-015;
#X text 363 482 propagate amplitudes by multiplying in the;
#X text 361 499 increments \, which advance the phase and drop;
#X text 365 514 magnitude according to revtime.;
#X text 608 370 normalize increments between 0 and;
#X text 606 388 1 according to revtime.;
#X text 78 453 IFFT and output;
#X connect 0 0 16 0;
#X connect 1 0 6 1;
#X connect 2 0 6 0;
#X connect 3 0 5 1;
#X connect 4 0 5 0;
#X connect 5 0 52 0;
#X connect 6 0 53 0;
#X connect 7 0 1 0;
#X connect 7 0 3 0;
#X connect 7 0 37 0;
#X connect 8 0 10 1;
#X connect 9 0 10 0;
#X connect 10 0 25 0;
#X connect 11 0 22 1;
#X connect 12 0 22 0;
#X connect 13 0 21 0;
#X connect 14 0 21 0;
#X connect 15 0 19 0;
#X connect 17 0 0 0;
#X connect 18 0 15 1;
#X connect 19 0 9 0;
#X connect 19 0 9 1;
#X connect 19 0 27 0;
#X connect 19 0 28 1;
#X connect 19 1 8 0;
#X connect 19 1 8 1;
#X connect 19 1 27 1;
#X connect 19 1 28 2;
#X connect 20 0 17 0;
#X connect 21 0 26 0;
#X connect 22 0 25 1;
#X connect 23 0 2 0;
#X connect 23 0 4 0;
#X connect 23 0 38 0;
#X connect 24 0 0 1;
#X connect 25 0 28 0;
#X connect 25 0 29 0;
#X connect 26 0 23 1;
#X connect 26 0 7 1;
#X connect 27 0 29 1;
#X connect 27 1 29 2;
#X connect 27 2 36 0;
#X connect 27 3 35 0;
#X connect 28 0 20 0;
#X connect 28 0 3 1;
#X connect 28 0 2 1;
#X connect 28 1 20 1;
#X connect 28 1 1 1;
#X connect 28 1 4 1;
#X connect 29 0 14 0;
#X connect 29 0 14 1;
#X connect 29 0 23 0;
#X connect 29 1 13 0;
#X connect 29 1 13 1;
#X connect 29 1 7 0;
#X connect 30 0 39 0;
#X connect 30 0 46 0;
#X connect 31 0 17 1;
#X connect 32 0 15 0;
#X connect 33 0 56 0;
#X connect 34 0 29 4;
#X connect 39 0 40 0;
#X connect 41 0 42 0;
#X connect 43 0 44 0;
#X connect 44 0 45 0;
#X connect 46 0 26 1;
#X connect 50 0 57 0;
#X connect 51 0 11 0;
#X connect 51 0 11 1;
#X connect 51 0 28 4;
#X connect 56 0 29 3;
#X connect 57 0 12 0;
#X connect 57 0 12 1;
#X connect 57 0 28 3;
#X restore 265 462 pd fft;
#X obj 1446 35 loadbang;
#X obj 1446 61 delay 300;
#X msg 1446 87 \; pd dsp 1 \;;
#X obj 1191 176 f;
#X obj 1226 176 + 1;
#X obj 1191 209 % 2;
#X floatatom 1191 239 5 0 0 0 - - -;
#X obj 1237 32 tedium_input 4;
#X obj 1085 50 tedium_input 23;
#X text 1072 22 tact switches #0-2:;
#X obj 1238 61 tedium_input 17;
#X obj 1128 321 tedium_output 16;
#X obj 1238 91 tedium_input 14;
#X obj 1238 120 tedium_input 27;
#X obj 1190 287 tedium_output 12;
#X obj 1343 251 tedium_output 26;
#X text 1232 9 gate inputs #0-3:;
#X text 1339 227 LED:;
#X obj 1086 85 tedium_input 25;
#X obj 1087 121 tedium_input 24;
#X obj 1261 669 s adc0;
#X obj 1322 669 s adc1;
#X obj 1384 669 s adc2;
#X obj 1448 669 s adc3;
#X obj 1508 669 s adc4;
#X obj 1572 669 s adc5;
#X obj 278 -32 r adc0;
#X obj 278 44 r adc1;
#X obj 279 112 r adc2;
#X obj 285 202 r adc3;
#X obj 420 449 r adc5;
#X obj 1637 669 s adc6;
#X obj 1697 669 s adc7;
#X msg 1280 504 open;
#X obj 1402 453 r initbang;
#X msg 1513 518 open adc;
#X obj 1402 522 metro 10;
#X obj 1402 565 terminal_tedium_adc;
#X msg 1159 550 smooth 4;
#X msg 1158 505 deadband 2;
#X text 1366 284 the "open" message opens the device. - don't supply
any parameter for use with the wm8731 version (= 6 ADC channels) -
use "open adc" for use with pcm5102a version (= 8 ADC channels). the
metro object determines the update rate (in ms).;
#X text 1367 363 the "smooth" message adds (optional) averaging (not
connected in this example): 1 \, 2 \, 4 \, 8 \, and 16 are the options
(defaults to 1 \, ie no averaging) the "deadband" message can be used
to add some hysteresis (ditto: not connected here): 0 \, 1 \, 2 \,
3 \, 4 \, and 5 are legal values (default is 0).;
#X obj 749 306 r ms;
#X obj 284 318 r adc4;
#X obj 278 2 / 4000;
#X obj 278 75 / 4000;
#X obj 279 142 / 4000;
#X obj 284 343 / 8000;
#X obj 299 162 / 4000;
#X obj 420 486 / 4000;
#X connect 1 0 100 0;
#X connect 3 0 6 0;
#X connect 3 0 6 1;
#X connect 4 0 3 0;
#X connect 6 0 80 0;
#X connect 6 0 82 0;
#X connect 6 0 83 0;
#X connect 6 1 81 0;
#X connect 7 0 6 0;
#X connect 8 0 7 0;
#X connect 9 0 10 0;
#X connect 10 0 6 0;
#X connect 11 0 12 0;
#X connect 12 0 6 0;
#X connect 12 0 84 0;
#X connect 13 0 79 0;
#X connect 14 0 13 0;
#X connect 15 0 78 0;
#X connect 16 0 15 0;
#X connect 17 0 79 0;
#X connect 18 0 17 0;
#X connect 19 0 78 0;
#X connect 20 0 19 0;
#X connect 21 0 79 0;
#X connect 22 0 21 0;
#X connect 23 0 78 0;
#X connect 24 0 23 0;
#X connect 25 0 26 0;
#X connect 26 0 20 0;
#X connect 27 0 47 0;
#X connect 28 0 48 0;
#X connect 29 0 45 0;
#X connect 30 0 14 0;
#X connect 31 0 16 0;
#X connect 32 0 79 0;
#X connect 33 0 32 0;
#X connect 34 0 78 0;
#X connect 35 0 34 0;
#X connect 36 0 49 0;
#X connect 37 0 44 0;
#X connect 38 0 79 0;
#X connect 39 0 38 0;
#X connect 40 0 78 0;
#X connect 41 0 40 0;
#X connect 42 0 50 0;
#X connect 43 0 46 0;
#X connect 44 0 35 0;
#X connect 45 0 24 0;
#X connect 46 0 41 0;
#X connect 48 0 22 0;
#X connect 49 0 33 0;
#X connect 50 0 39 0;
#X connect 51 0 79 0;
#X connect 52 0 51 0;
#X connect 53 0 78 0;
#X connect 54 0 53 0;
#X connect 55 0 66 0;
#X connect 56 0 63 0;
#X connect 57 0 79 0;
#X connect 58 0 57 0;
#X connect 59 0 78 0;
#X connect 60 0 59 0;
#X connect 61 0 65 0;
#X connect 62 0 64 0;
#X connect 63 0 54 0;
#X connect 64 0 60 0;
#X connect 65 0 58 0;
#X connect 66 0 52 0;
#X connect 67 0 68 0;
#X connect 68 0 69 0;
#X connect 68 1 70 0;
#X connect 69 0 71 0;
#X connect 75 0 93 0;
#X connect 75 0 84 0;
#X connect 76 0 94 0;
#X connect 76 0 84 1;
#X connect 77 0 76 1;
#X connect 77 0 75 1;
#X connect 78 0 75 0;
#X connect 79 0 76 0;
#X connect 80 0 5 0;
#X connect 81 0 5 1;
#X connect 84 0 5 0;
#X connect 84 1 5 1;
#X connect 85 0 84 0;
#X connect 86 0 85 0;
#X connect 87 0 88 0;
#X connect 88 0 84 0;
#X connect 89 0 86 0;
#X connect 89 0 87 0;
#X connect 91 0 93 1;
#X connect 91 0 94 1;
#X connect 93 0 101 0;
#X connect 94 0 107 0;
#X connect 95 0 99 0;
#X connect 96 0 99 0;
#X connect 99 0 4 0;
#X connect 100 0 2 0;
#X connect 101 0 83 0;
#X connect 101 0 5 0;
#X connect 107 0 82 0;
#X connect 107 0 5 1;
#X connect 108 0 109 0;
#X connect 109 0 110 0;
#X connect 111 0 112 0;
#X connect 111 0 113 0;
#X connect 112 0 111 1;
#X connect 113 0 114 0;
#X connect 114 0 119 0;
#X connect 114 0 122 0;
#X connect 114 0 123 0;
#X connect 115 0 111 0;
#X connect 116 0 111 0;
#X connect 118 0 111 0;
#X connect 120 0 111 0;
#X connect 121 0 111 0;
#X connect 126 0 111 0;
#X connect 127 0 111 0;
#X connect 134 0 152 0;
#X connect 135 0 153 0;
#X connect 136 0 154 0;
#X connect 137 0 77 0;
#X connect 138 0 157 0;
#X connect 141 0 145 0;
#X connect 142 0 141 0;
#X connect 142 0 143 0;
#X connect 142 0 144 0;
#X connect 144 0 145 0;
#X connect 145 0 128 0;
#X connect 145 1 129 0;
#X connect 145 2 130 0;
#X connect 145 3 131 0;
#X connect 145 4 132 0;
#X connect 145 5 133 0;
#X connect 145 6 139 0;
#X connect 145 7 140 0;
#X connect 146 0 145 0;
#X connect 147 0 145 0;
#X connect 150 0 104 0;
#X connect 151 0 155 0;
#X connect 152 0 8 0;
#X connect 153 0 9 0;
#X connect 154 0 11 0;
#X connect 155 0 91 0;
#X connect 157 0 89 0;
